<?xml version="1.0" standalone="no"?>
<!DOCTYPE svg PUBLIC "-//W3C//DTD SVG 20010904//EN"
 "http://www.w3.org/TR/2001/REC-SVG-20010904/DTD/svg10.dtd">
<svg version="1.0" xmlns="http://www.w3.org/2000/svg"
 width="512.000000pt" height="512.000000pt" viewBox="0 0 512.000000 512.000000"
 preserveAspectRatio="xMidYMid meet">

<g transform="translate(0.000000,512.000000) scale(0.100000,-0.100000)"
fill="#000000" stroke="none">
<path d="M0 2560 l0 -2560 2560 0 2560 0 0 2560 0 2560 -2560 0 -2560 0 0
-2560z m3139 2276 c58 -9 108 -22 112 -28 5 -7 25 -60 45 -118 20 -58 108
-303 195 -545 86 -242 164 -467 173 -500 13 -54 38 -217 33 -222 -1 -1 -47 5
-102 12 -119 17 -308 19 -425 4 -73 -9 -85 -8 -92 6 -25 43 -138 159 -383 392
-346 328 -875 844 -875 853 0 9 173 64 298 94 114 28 256 52 377 66 119 13
522 4 644 -14z m-1294 -313 c71 -70 216 -211 320 -313 105 -102 322 -311 483
-465 300 -286 354 -348 425 -490 82 -164 109 -382 69 -542 -43 -171 -129 -326
-269 -488 -106 -123 -201 -197 -338 -265 -171 -84 -261 -105 -450 -104 -128 1
-164 5 -246 26 -124 34 -246 92 -345 166 -44 33 -317 279 -609 547 -669 615
-655 602 -655 615 0 6 22 54 49 108 274 544 716 984 1271 1264 74 37 142 68
150 68 8 0 73 -57 145 -127z m1644 -1173 c143 -13 239 -32 367 -75 542 -180
940 -648 1039 -1220 24 -140 23 -365 -4 -515 -99 -570 -513 -1038 -1073 -1215
-286 -90 -646 -87 -934 10 -235 78 -428 199 -610 380 -269 268 -430 613 -451
969 l-6 99 29 -6 c16 -4 75 -12 130 -18 l102 -12 7 -75 c34 -366 250 -727 558
-933 157 -105 292 -161 480 -200 194 -40 455 -24 647 41 392 132 699 444 824
840 68 213 74 484 18 703 -93 359 -345 668 -677 832 -187 92 -396 139 -593
133 l-102 -3 -22 65 c-11 36 -34 93 -49 127 l-28 62 42 6 c40 5 96 10 162 13
17 1 81 -3 144 -8z m120 -380 c479 -100 857 -495 931 -975 31 -198 5 -438 -66
-617 -149 -373 -433 -622 -834 -729 -110 -30 -354 -37 -475 -15 -438 82 -786
380 -926 793 -31 93 -59 230 -59 293 l0 37 65 7 c130 13 315 81 441 161 242
154 459 439 540 711 20 69 27 118 31 221 l6 132 26 4 c47 9 232 -5 320 -23z"/>
<path d="M1790 4015 c-30 -9 -97 -35 -148 -60 -303 -146 -530 -407 -651 -748
-56 -158 -52 -280 13 -412 28 -55 86 -128 281 -345 135 -151 271 -299 303
-328 64 -59 186 -123 280 -147 342 -87 751 76 992 397 188 249 238 549 139
822 -62 171 -135 250 -454 489 -318 237 -399 293 -463 318 -75 28 -215 35
-292 14z m262 -116 c65 -24 387 -254 641 -456 108 -87 178 -185 225 -316 22
-63 26 -89 26 -202 1 -148 -13 -215 -70 -334 -151 -320 -482 -536 -819 -535
-152 1 -278 42 -382 125 -22 19 -159 164 -302 323 -299 331 -312 351 -319 486
-4 73 0 97 22 165 58 174 166 356 284 479 117 121 314 243 452 281 69 19 169
12 242 -16z"/>
<path d="M3334 2517 c-27 -15 -34 -27 -34 -64 0 -22 -5 -33 -15 -33 -37 0
-129 -45 -173 -85 -72 -65 -97 -126 -97 -240 0 -79 4 -97 28 -147 47 -95 104
-131 310 -194 150 -46 196 -73 227 -134 46 -91 13 -236 -67 -290 -48 -33 -171
-41 -238 -16 -45 18 -97 68 -127 124 -13 25 -24 32 -47 32 -89 0 -77 -94 25
-197 42 -42 64 -56 113 -69 59 -17 61 -18 61 -51 0 -61 66 -96 103 -55 10 10
17 33 17 50 0 26 5 33 28 38 165 35 258 142 269 310 14 197 -76 301 -317 368
-181 51 -218 72 -255 145 -27 53 -18 156 18 210 37 56 110 91 188 91 103 0
172 -38 210 -117 26 -56 34 -63 71 -63 18 0 33 8 44 25 15 24 15 29 -1 73 -12
29 -40 69 -75 104 -47 46 -69 60 -119 75 -54 16 -61 21 -61 43 0 52 -47 88
-86 67z"/>
</g>
</svg>
